# xmcd
#
# Track frame offsets: 
#        183
#        49458
#        131320
#        160055
#
# Disc length: 3091 seconds
#
# Revision: 4
# Processed by: cddbd v1.5.2PL0 Copyright (c) Steve Scherf et al.
# Submitted via: ExactAudioCopyFreeDBPlugin 1.0
#
DISCID=2d0c1104
DTITLE=Leonard Bernstein, Wiener Philharmoniker - Symphony No. 2 in D 
DTITLE=major (Wiener Philharmoniker feat. director: Leonard Bernstein)
DYEAR=1987
DGENRE=Klassik
TTITLE0=Symphony No. 2 in D major, Op. 43: I. Allegretto
TTITLE1=Symphony No. 2 in D major, Op. 43: II. Tempo andante, ma rubat
TTITLE1=o
TTITLE2=Symphony No. 2 in D major, Op. 43: III. Vivacissimo -
TTITLE3=Symphony No. 2 in D major, Op. 43: IV. Finale: Allegro moderat
TTITLE3=o
EXTD=
EXTT0=
EXTT1=
EXTT2=
EXTT3=
PLAYORDER=
